<svg width="227" height="52" viewBox="0 0 227 52" fill="none" xmlns="http://www.w3.org/2000/svg">
<path d="M68.096 36C66.5813 36 65.3973 35.7867 64.544 35.36C63.6907 34.9333 63.0933 34.2933 62.752 33.44C62.4107 32.5867 62.24 31.5307 62.24 30.272V23.136C62.24 21.088 62.6987 19.584 63.616 18.624C64.5333 17.6427 66.0267 17.152 68.096 17.152H77.728C79.2 17.152 80.32 17.2373 81.088 17.408C81.8773 17.5573 82.272 17.7173 82.272 17.888L81.632 20.544C81.2693 20.48 80.192 20.416 78.4 20.352C76.6293 20.2667 74.048 20.224 70.656 20.224H69.024C67.3173 20.224 66.464 20.9813 66.464 22.496V30.656C66.464 31.3813 66.6453 31.9467 67.008 32.352C67.392 32.736 68.064 32.928 69.024 32.928H70.336C73.8773 32.928 76.6187 32.896 78.56 32.832C80.5227 32.7467 81.7387 32.6613 82.208 32.576L83.52 34.688C83.52 34.7947 83.3387 34.9547 82.976 35.168C82.6347 35.3813 81.9947 35.5733 81.056 35.744C80.1173 35.9147 78.7627 36 76.992 36H68.096ZM90.2043 36C88.5829 36 87.4096 35.6267 86.6843 34.88C85.9589 34.112 85.5963 33.0667 85.5963 31.744C85.5963 30.3573 85.9696 29.2907 86.7163 28.544C87.4843 27.7973 88.6469 27.424 90.2043 27.424H91.8363C93.4363 27.424 94.8763 27.4667 96.1563 27.552C97.4363 27.6373 98.4923 27.7227 99.3243 27.808V25.696C99.3243 25.504 99.3029 25.312 99.2603 25.12C99.2176 24.9067 99.0896 24.736 98.8763 24.608C98.6629 24.48 98.3003 24.416 97.7883 24.416H96.1883C93.8629 24.416 91.9216 24.4587 90.3643 24.544C88.8069 24.608 87.7509 24.672 87.1963 24.736L86.8443 22.304C86.8443 22.0053 87.6549 21.824 89.2763 21.76C90.8976 21.696 93.6069 21.664 97.4043 21.664H99.0043C100.071 21.664 100.892 21.8133 101.468 22.112C102.044 22.4107 102.45 22.784 102.684 23.232C102.94 23.68 103.09 24.1387 103.132 24.608C103.196 25.056 103.228 25.44 103.228 25.76V36H100.604L99.3563 35.36C98.4603 35.5093 97.3829 35.6587 96.1243 35.808C94.8656 35.936 93.4256 36 91.8043 36H90.2043ZM91.0363 33.248H98.3643C98.8336 33.248 99.1109 33.2053 99.1963 33.12C99.2816 33.0347 99.3243 32.768 99.3243 32.32V29.856H91.0363C90.4603 29.856 90.0549 29.9947 89.8203 30.272C89.6069 30.5493 89.5003 30.9867 89.5003 31.584C89.5003 32.1813 89.6283 32.608 89.8843 32.864C90.1403 33.12 90.5243 33.248 91.0363 33.248ZM106.92 36V21.664H109.544L110.76 22.304C111.315 22.0053 111.912 21.7707 112.552 21.6C113.192 21.4293 114.003 21.344 114.984 21.344C116.541 21.344 117.8 21.5147 118.76 21.856C119.741 22.1973 120.392 22.4533 120.712 22.624L119.592 25.408C119.336 25.28 118.909 25.12 118.312 24.928C117.736 24.7147 117.053 24.5227 116.264 24.352C115.475 24.1813 114.611 24.096 113.672 24.096H113.32C112.296 24.096 111.624 24.2987 111.304 24.704C111.005 25.1093 110.845 25.7813 110.824 26.72V36H106.92ZM126.855 36C125.789 36 124.967 35.8613 124.391 35.584C123.815 35.3067 123.399 34.9547 123.143 34.528C122.909 34.1013 122.759 33.6533 122.695 33.184C122.653 32.7147 122.631 32.288 122.631 31.904V25.76C122.631 25.44 122.653 25.056 122.695 24.608C122.759 24.1387 122.909 23.68 123.143 23.232C123.399 22.784 123.815 22.4107 124.391 22.112C124.989 21.8133 125.81 21.664 126.855 21.664H133.735C135.143 21.664 136.242 21.8027 137.031 22.08C137.842 22.336 138.407 22.7627 138.727 23.36C139.069 23.9573 139.239 24.7573 139.239 25.76V30.496H133.639C131.719 30.496 130.151 30.4533 128.935 30.368C127.741 30.2827 126.941 30.2293 126.535 30.208V31.968C126.514 32.8213 127.026 33.248 128.071 33.248H129.703C130.855 33.248 131.975 33.2373 133.063 33.216C134.173 33.1733 135.186 33.1307 136.103 33.088C137.021 33.024 137.757 32.9707 138.311 32.928L139.591 35.008C139.591 35.6693 137.49 36 133.287 36H126.855ZM126.535 27.744H135.335V25.696C135.335 25.2693 135.282 24.9707 135.175 24.8C135.09 24.6293 134.813 24.5227 134.343 24.48C133.874 24.4373 133.074 24.416 131.943 24.416H128.071C127.047 24.416 126.535 24.8427 126.535 25.696V27.744ZM147.019 36C145.568 36 144.502 35.936 143.819 35.808C143.136 35.68 142.795 35.5307 142.795 35.36L144.075 32.576C144.566 32.6613 145.782 32.7467 147.723 32.832C149.686 32.896 152.374 32.928 155.787 32.928H156.395C157.312 32.928 157.963 32.768 158.347 32.448C158.731 32.1067 158.923 31.5413 158.923 30.752V30.112C158.923 29.3653 158.763 28.832 158.443 28.512C158.144 28.192 157.462 28.032 156.395 28.032H148.971C146.816 28.032 145.248 27.6373 144.267 26.848C143.286 26.0373 142.795 24.7253 142.795 22.912V22.4C142.795 21.4613 142.966 20.5973 143.307 19.808C143.67 19.0187 144.278 18.3893 145.131 17.92C145.984 17.4293 147.158 17.184 148.651 17.184H157.355C158.806 17.184 159.979 17.2587 160.875 17.408C161.771 17.5573 162.219 17.7173 162.219 17.888L161.579 20.576C161.024 20.512 159.766 20.448 157.803 20.384C155.84 20.2987 153.206 20.256 149.899 20.256L149.547 20.224C148.566 20.224 147.904 20.4267 147.563 20.832C147.222 21.216 147.04 21.7067 147.019 22.304V22.848C147.019 23.552 147.211 24.0853 147.595 24.448C148 24.7893 148.662 24.96 149.579 24.96H156.683C158.048 24.96 159.211 25.0987 160.171 25.376C161.131 25.6533 161.867 26.1653 162.379 26.912C162.891 27.6373 163.147 28.7147 163.147 30.144V30.656C163.147 32.256 162.731 33.5467 161.899 34.528C161.088 35.5093 159.67 36 157.643 36H147.019ZM170.887 36C169.82 36 168.999 35.8613 168.423 35.584C167.847 35.3067 167.431 34.9547 167.174 34.528C166.94 34.1013 166.791 33.6533 166.727 33.184C166.684 32.7147 166.663 32.288 166.663 31.904V25.76C166.663 25.44 166.684 25.056 166.727 24.608C166.791 24.1387 166.94 23.68 167.174 23.232C167.431 22.784 167.847 22.4107 168.423 22.112C169.02 21.8133 169.841 21.664 170.887 21.664H177.767C179.175 21.664 180.273 21.8027 181.062 22.08C181.873 22.336 182.439 22.7627 182.759 23.36C183.1 23.9573 183.271 24.7573 183.271 25.76V30.496H177.671C175.751 30.496 174.183 30.4533 172.967 30.368C171.772 30.2827 170.972 30.2293 170.567 30.208V31.968C170.545 32.8213 171.057 33.248 172.103 33.248H173.735C174.887 33.248 176.007 33.2373 177.095 33.216C178.204 33.1733 179.217 33.1307 180.135 33.088C181.052 33.024 181.788 32.9707 182.343 32.928L183.623 35.008C183.623 35.6693 181.521 36 177.319 36H170.887ZM170.567 27.744H179.367V25.696C179.367 25.2693 179.313 24.9707 179.207 24.8C179.121 24.6293 178.844 24.5227 178.375 24.48C177.905 24.4373 177.105 24.416 175.975 24.416H172.103C171.079 24.416 170.567 24.8427 170.567 25.696V27.744ZM186.826 36V21.664H189.45L190.73 22.304C191.626 22.1333 192.704 21.984 193.962 21.856C195.221 21.728 196.661 21.664 198.282 21.664H199.882C200.949 21.664 201.77 21.8133 202.346 22.112C202.922 22.4107 203.328 22.784 203.562 23.232C203.818 23.68 203.968 24.1387 204.01 24.608C204.074 25.056 204.106 25.44 204.106 25.76V36H200.202V25.696C200.202 24.8427 199.69 24.416 198.666 24.416H191.69C191.285 24.416 191.018 24.4587 190.89 24.544C190.784 24.608 190.73 24.8 190.73 25.12V36H186.826ZM211.699 36C210.632 36 209.811 35.8613 209.235 35.584C208.659 35.3067 208.243 34.9547 207.987 34.528C207.752 34.1013 207.603 33.6533 207.539 33.184C207.496 32.7147 207.475 32.288 207.475 31.904V25.76C207.475 25.44 207.496 25.056 207.539 24.608C207.603 24.1387 207.752 23.68 207.987 23.232C208.243 22.784 208.659 22.4107 209.235 22.112C209.832 21.8133 210.654 21.664 211.699 21.664H213.331C215.294 21.664 216.872 21.7067 218.067 21.792C219.283 21.856 220.211 21.9307 220.851 22.016V15.712H224.755V36H222.131L220.883 35.36C219.987 35.5093 218.91 35.6587 217.651 35.808C216.392 35.936 214.942 36 213.299 36H211.699ZM212.915 33.248H219.859C220.307 33.248 220.584 33.1947 220.691 33.088C220.798 32.9813 220.851 32.7147 220.851 32.288V24.64C220.126 24.5973 219.208 24.5547 218.099 24.512C216.99 24.448 215.806 24.416 214.547 24.416H212.915C211.891 24.416 211.379 24.8427 211.379 25.696V31.968C211.379 32.8213 211.891 33.248 212.915 33.248Z" fill="#007FC6"/>
<path d="M49.2659 41.0848H49.5263L50.5422 29.1292L52 26.0329L51.5495 19.3803C51.6592 17.9986 50.4463 17.2209 49.6909 16.9023L48.3153 20.3027L47.9436 17.3648L48.1731 17.1833L48.1115 16.3842L48.6785 16.1845C48.6202 16.1023 48.5843 16.0234 48.5843 15.9558C48.5843 15.7691 48.5843 15.5352 48.5843 15.2166C48.8103 14.9503 48.9817 14.4098 49.0827 13.7982C49.2249 13.7433 49.3174 13.6612 49.4391 13.018C49.523 12.564 49.3893 12.2839 49.3586 12.2839C49.415 11.8718 49.4921 11.0573 49.2901 10.6487C49.2901 10.6487 49.4288 10.3832 49.4288 10.0295C48.8464 10.1177 46.986 8.84995 46.4309 9.88213C45.6241 9.79296 45.1444 10.9999 45.5092 12.2839C45.5092 12.2839 45.0571 12.2616 45.2386 12.9323C45.4065 13.5636 45.5436 13.7074 45.7799 13.7982C45.8827 14.4098 46.0523 14.9503 46.2785 15.2166C46.2785 15.5353 46.2785 15.7691 46.2785 15.9558C46.2785 15.996 46.2665 16.0388 46.246 16.0852L46.9792 16.3447L46.9141 17.1831L47.1436 17.3647L46.7616 20.3952L45.0314 16.9519C44.7864 17.0444 44.4781 17.1677 44.1612 17.3237L43.5787 21.6543L43.3269 17.9224C43.4691 16.1238 41.7697 15.1627 40.8773 14.8294C40.8224 14.8089 40.7642 14.7823 40.7025 14.7489L39.2704 18.2915L38.8661 15.0967L39.1163 14.8979L39.0477 14.0302L39.7158 13.7946C39.7124 13.7776 39.7089 13.7612 39.7089 13.745C39.7089 13.518 39.7089 13.2336 39.7089 12.8439C39.983 12.5193 40.192 11.8598 40.3171 11.1138C40.4901 11.0469 40.6032 10.9459 40.7504 10.1621C40.855 9.60801 40.6922 9.26706 40.6511 9.26706C40.7213 8.76433 40.8173 7.77074 40.5688 7.27217C40.5688 7.27217 40.7384 6.94839 40.7384 6.51675C40.0275 6.6238 37.7576 5.07771 37.0793 6.33688C36.0977 6.22811 35.5119 7.70138 35.9573 9.26706C35.9573 9.26706 35.4057 9.23883 35.6266 10.0585C35.8322 10.8277 35.9983 11.0033 36.2878 11.1138C36.4129 11.8599 36.6202 12.5193 36.8959 12.8439C36.8959 13.1874 36.8959 13.4478 36.8959 13.6611L37.8158 13.9875L37.7456 14.8979L37.994 15.0967L37.5776 18.3917L35.7772 14.8072C35.7602 14.8149 35.743 14.8226 35.7276 14.8295C35.2616 15.0026 34.2868 15.3469 33.492 15.89L32.6989 21.788L32.3323 16.3662C32.346 16.1948 32.3392 16.0287 32.3169 15.8712C32.0924 14.1264 29.9563 13.1525 28.9576 12.7706L26.9636 17.0078L26.4702 13.1037L26.7735 12.8622L26.6878 11.7505L27.51 11.4592C27.51 11.1954 27.51 10.8657 27.51 10.4159C27.8321 10.0357 28.0771 9.263 28.2227 8.38774C28.5619 8.26007 28.7555 8.0536 28.9987 7.15172C29.2557 6.19155 28.6098 6.22496 28.6098 6.22496C29.1323 4.38942 28.4454 2.6652 27.2942 2.79195C26.4994 1.31706 23.8407 3.12853 23.0082 3.00259C23.0082 3.50796 23.2069 3.8874 23.2069 3.8874C22.9174 4.47078 23.0288 5.63651 23.111 6.22496C23.063 6.22415 22.4788 6.23096 22.7272 7.15172C22.9706 8.0536 23.1623 8.26007 23.5033 8.38774C23.6489 9.263 23.8921 10.0357 24.2142 10.4159C24.2142 10.8657 24.2142 11.1954 24.2142 11.4592L25.1855 11.8027L25.1033 12.8622L25.4082 13.1037L24.8823 17.2614L22.7684 12.7706C21.6771 13.186 19.2326 14.308 19.3937 16.3655L19.1195 20.4254L18.5098 15.8901C17.7149 15.3471 16.7385 15.0027 16.2742 14.8296C16.2571 14.8227 16.2398 14.815 16.2228 14.8073L14.4224 18.3918L14.006 15.0968L14.2544 14.898L14.1841 13.9876L15.104 13.6612C15.104 13.4479 15.104 13.1875 15.104 12.844C15.3781 12.5194 15.5887 11.8599 15.7121 11.1139C16.0016 11.0034 16.1677 10.8278 16.375 10.0586C16.5943 9.23893 16.0427 9.26717 16.0427 9.26717C16.4881 7.70148 15.9024 6.22821 14.9206 6.33699C14.2423 5.07781 11.9725 6.6239 11.2616 6.51685C11.2616 6.94849 11.4312 7.27227 11.4312 7.27227C11.1846 7.77084 11.2787 8.76443 11.349 9.26717C11.3079 9.26717 11.1451 9.60811 11.2497 10.1622C11.3987 10.946 11.51 11.047 11.6848 11.1139C11.8081 11.86 12.0154 12.5194 12.2912 12.844C12.2912 13.2338 12.2912 13.5182 12.2912 13.7451C12.2912 13.7613 12.2877 13.7776 12.286 13.7947L12.9525 14.0303L12.884 14.898L13.1341 15.0968L12.7315 18.2916L11.2977 14.749C11.236 14.7824 11.176 14.809 11.1229 14.8295C10.2305 15.1628 8.53277 16.1238 8.67496 17.9225L8.42146 21.6622L7.83727 17.3238C7.52212 17.1678 7.21378 17.0445 6.96881 16.952L5.23859 20.3961L4.85652 17.3647L5.08605 17.1831L5.02095 16.3447L5.75585 16.0852C5.73361 16.0388 5.72152 15.996 5.72152 15.9558C5.72152 15.7691 5.72152 15.5352 5.72152 15.2166C5.94598 14.9503 6.11904 14.4098 6.22009 13.7982C6.45826 13.7074 6.59354 13.5636 6.76305 12.9323C6.94291 12.2616 6.49238 12.2839 6.49238 12.2839C6.8573 10.9999 6.37589 9.79306 5.57081 9.88213C5.01566 8.84995 3.15362 10.1177 2.57116 10.0295C2.57116 10.3832 2.70989 10.6487 2.70989 10.6487C2.50778 11.0572 2.58497 11.8718 2.64316 12.2839C2.61066 12.2839 2.47701 12.564 2.56262 13.018C2.68257 13.6613 2.77509 13.7434 2.91728 13.7982C3.02006 14.4098 3.18967 14.9503 3.41575 15.2166C3.41575 15.5353 3.41575 15.7691 3.41575 15.9558C3.41575 16.0234 3.38152 16.1022 3.32333 16.1845L3.88862 16.3842L3.82525 17.1833L4.05478 17.3648L3.68489 20.3011L2.30923 16.9024C1.5538 17.2211 0.340945 17.9988 0.448805 19.3804L0 26.0329L1.45783 29.1292L2.47538 41.0848H2.73569L2.73061 41.2681L1.1768 43.048L1.69416 43.6946L4.80167 42.6574V41.0848H4.95412L4.97646 32.212L6.74436 41.0848H7.16229L7.17935 41.1978L6.87791 42.7482L7.51522 43.6748L8.74169 43.5823L9.22299 42.5871L9.07735 41.0847H9.22299L8.49499 29.1291L9.03805 27.9763L9.90316 29.8144L11.1434 44.3985H11.4603L11.4551 44.6222L9.56059 46.7926L10.1927 47.5823L13.982 46.3154V44.3985H14.167L14.1961 33.5746L16.3529 44.3985H16.8617L16.8841 44.5365L16.5158 46.4286L17.2917 47.5583L18.789 47.4444L19.3765 46.2306L19.1984 44.3984H19.3765L18.4874 29.8143L19.5478 27.5624L20.8343 30.2981V46.0094H21.2232L21.2215 46.0917L18.8557 48.8034L19.6437 49.7893L24.3769 48.2073V46.0094L25.8621 34.7041L27.349 46.0094H27.5015V48.2073L32.2329 49.7893L33.0226 48.8034L30.6552 46.0917L30.6534 46.0094H30.8916V30.2984L32.3151 27.2715L33.5142 29.8145L32.6251 44.3987H32.8033L32.6251 46.2308L33.2109 47.4446L34.7082 47.5585L35.4859 46.4288L35.1158 44.5367L35.1382 44.3988H35.647L37.8054 33.5748L37.8328 44.3988H38.0178V46.3156L41.8088 47.5825L42.4392 46.7928L40.5447 44.6224L40.5395 44.3988H40.8564L42.0966 29.8146L42.9618 27.9765L43.5048 29.1293L42.7768 41.0849H42.9224L42.7768 42.5873L43.2581 43.5825L44.4846 43.675L45.1219 42.7484L44.8204 41.198L44.8375 41.085H45.2555L47.0233 32.2122L47.0473 41.085H47.1999V42.6576L50.3056 43.6948L50.823 43.0482L49.2692 41.2683L49.2659 41.0848Z" fill="#007FC6"/>
</svg>
